<svg data-v-423bf9ae="" xmlns="http://www.w3.org/2000/svg" viewBox="0 0 191.02042770544773 60" class="font"><!----><!----><defs data-v-423bf9ae=""><linearGradient data-v-423bf9ae="" gradientTransform="rotate(25)" id="e8741cca-3a7b-4c7c-8f4f-68c155c286a5" x1="0%" y1="0%" x2="100%" y2="0%"><stop data-v-423bf9ae="" offset="0%" style="stop-color: rgb(13, 33, 117); stop-opacity: 1;"></stop><stop data-v-423bf9ae="" offset="100%" style="stop-color: rgb(31, 30, 251); stop-opacity: 1;"></stop></linearGradient></defs><g data-v-423bf9ae="" id="c477ea38-0e90-45cd-8794-001a5dcac257" fill="url(#e8741cca-3a7b-4c7c-8f4f-68c155c286a5)" transform="matrix(6.122449456230433,0,0,6.122449456230433,2.6938763744423397,-11.816328097660907)"><path d="M1.40 7.57L3.09 1.94L4.74 1.94L4.74 1.94Q4.77 2.08 6.34 7.29L6.34 7.29L6.64 7.29L6.64 10.51L5.96 10.51L5.96 10.76L6.64 10.76L6.64 11.45L4.82 11.45L4.82 9.47L2.59 9.47L2.59 10.31L1.69 10.31L1.69 11.73L0.03 11.73L0.03 11.63L0.16 11.63L0.16 10.31L0.84 10.31L0.84 7.57L1.40 7.57ZM3.90 4.70L3.86 4.70L3.86 4.72L3.86 4.72Q3.65 5.88 3.04 8.39L3.04 8.39L4.57 8.39L4.57 7.29L4.44 7.29L4.44 7.29Q3.90 4.91 3.90 4.70L3.90 4.70ZM0.94 7.08L0.94 7.08L1.09 7.08L1.09 7.08Q1.09 7.14 1.16 7.18L1.16 7.18L1.16 7.18Q1.16 7.12 1.22 7.08L1.22 7.08L1.34 7.08L1.34 7.09L1.34 7.09Q1.22 7.25 1.22 7.27L1.22 7.27L1.22 7.27Q1.25 7.33 1.35 7.47L1.35 7.47L1.35 7.51L1.29 7.51L1.29 7.51Q1.20 7.51 1.16 7.37L1.16 7.37L1.16 7.37Q1.05 7.51 1.04 7.51L1.04 7.51L0.96 7.51L0.96 7.51Q0.92 7.51 0.92 7.47L0.92 7.47L0.92 7.47Q0.94 7.47 1.06 7.29L1.06 7.29L1.06 7.26L1.06 7.26Q0.94 7.09 0.94 7.08ZM-0.44 7.57L-0.44 7.27L0.84 7.27L0.84 7.57L-0.44 7.57ZM6.69 7.59L6.69 7.49L7.03 7.49L7.03 7.57L6.82 7.83L7.02 7.83L7.02 7.83Q7.05 7.84 7.05 7.87L7.05 7.87L7.05 7.90L7.05 7.90Q7.05 7.94 7.02 7.94L7.02 7.94L6.67 7.94L6.67 7.85L6.88 7.59L6.69 7.59ZM4.16 8.36L4.16 7.92L4.26 7.92L4.26 8.08L4.44 7.92L4.54 7.92L4.54 7.94L4.40 8.10L4.40 8.10Q4.56 8.33 4.56 8.36L4.56 8.36L4.46 8.36L4.46 8.36Q4.44 8.36 4.31 8.18L4.31 8.18L4.31 8.18Q4.29 8.18 4.26 8.23L4.26 8.23L4.26 8.36L4.16 8.36ZM6.72 8.07L6.72 8.07L6.92 8.07L6.92 8.07Q7.07 8.09 7.07 8.22L7.07 8.22L7.02 8.30L7.02 8.30Q7.07 8.35 7.07 8.50L7.07 8.50L7.07 8.51L6.97 8.51L6.97 8.51Q6.95 8.35 6.92 8.35L6.92 8.35L6.80 8.35L6.80 8.51L6.72 8.51L6.72 8.51Q6.69 8.51 6.69 8.48L6.69 8.48L6.69 8.10L6.69 8.10Q6.69 8.07 6.72 8.07ZM6.95 8.16L6.80 8.16L6.80 8.26L6.92 8.26L6.92 8.26Q6.95 8.26 6.95 8.23L6.95 8.23L6.95 8.16ZM6.69 8.64L6.69 8.64L7 8.64L7 8.64Q7.03 8.65 7.03 8.67L7.03 8.67L7.03 8.71L7.03 8.71Q7.03 8.74 7 8.74L7 8.74L6.90 8.74L6.90 9.09L6.79 9.09L6.79 8.74L6.69 8.74L6.69 8.74Q6.65 8.74 6.65 8.71L6.65 8.71L6.65 8.67L6.65 8.67Q6.66 8.64 6.69 8.64ZM6.79 9.67L6.65 9.22L6.73 9.22L6.73 9.22Q6.78 9.22 6.84 9.50L6.84 9.50L6.85 9.50L6.85 9.50Q6.93 9.26 6.93 9.22L6.93 9.22L7.05 9.22L7.05 9.22Q6.92 9.67 6.88 9.67L6.88 9.67L6.79 9.67ZM2.67 9.75L3.09 9.60L3.09 9.69L3.09 9.69Q3.09 9.71 2.82 9.80L2.82 9.80L2.82 9.82L3.09 9.91L3.09 10.01L2.67 9.86L2.67 9.75ZM0.53 9.80L0.53 9.80L0.58 9.80L0.58 9.80Q0.64 9.80 0.76 10.25L0.76 10.25L0.66 10.25L0.66 10.25Q0.66 10.23 0.63 10.14L0.63 10.14L0.48 10.14L0.48 10.14Q0.46 10.25 0.43 10.25L0.43 10.25L0.35 10.25L0.35 10.25Q0.49 9.80 0.53 9.80ZM6.87 9.80L6.87 9.80L6.92 9.80L6.92 9.80Q7.08 9.80 7.12 10.03L7.12 10.03L7.12 10.03Q7.07 10.26 6.90 10.26L6.90 10.26L6.90 10.26Q6.67 10.22 6.67 10.03L6.67 10.03L6.67 10.03Q6.71 9.80 6.87 9.80ZM6.79 10.01L6.79 10.01L6.79 10.03L6.79 10.03Q6.79 10.12 6.87 10.17L6.87 10.17L6.92 10.17L6.92 10.17Q7 10.12 7 10.03L7 10.03L7 10.01L7 10.01Q6.99 9.88 6.88 9.88L6.88 9.88L6.88 9.88Q6.79 9.92 6.79 10.01ZM0.56 9.95L0.55 9.95L0.55 9.95Q0.51 10.06 0.51 10.06L0.51 10.06L0.59 10.06L0.56 9.95ZM4.82 11.73L4.82 11.57L7.02 11.57L7.02 11.73L4.82 11.73ZM7.25 9.37L7.25 1.93L9.43 1.93L9.43 1.93Q9.80 3.25 10.92 7.21L10.92 7.21L11.79 7.21L11.79 7.21Q11.82 7.21 12.07 6.26L12.07 6.26L12.07 6.26Q12.61 4.40 13.29 1.93L13.29 1.93L15.31 1.93L15.31 8.29L15.43 8.29L15.43 9.45L14.81 9.45L14.81 9.66L15.43 9.66L15.43 11.73L13.71 11.73L13.71 10.97L13.92 10.97L13.92 8.62L13.56 8.62L13.56 7.44L13.34 7.44L13.32 7.51L13.14 7.51L13.14 9.18L12.54 9.18L12.54 9.96L12.03 9.96L12.03 11.29L10.82 11.29L10.82 10.44L10.08 10.44L10.08 9.28L9.63 9.28L9.63 8.07L9.38 8.07L9.38 8.07Q9.37 7.97 9.21 7.44L9.21 7.44L10.95 7.44L10.90 7.21L9.17 7.21L9.21 7.44L8.98 7.44L8.98 8.96L9.10 8.96L9.10 10.64L8.67 10.64L8.67 10.94L9.10 10.94L9.10 11.38L7.54 11.38L7.54 9.37L7.25 9.37ZM8.98 6.51L8.97 6.51L8.97 6.63L8.97 6.63Q8.97 6.78 8.98 7.21L8.98 7.21L9.15 7.21L9.15 7.21Q8.98 6.55 8.98 6.51L8.98 6.51ZM13.57 6.53L13.56 6.53L13.41 7.21L13.56 7.21L13.56 7.21Q13.57 6.79 13.57 6.60L13.57 6.60L13.57 6.53ZM8.97 7.21L8.42 7.21L8.42 7.44L8.97 7.44L8.97 7.21ZM13.39 7.21L11.81 7.21L11.76 7.44L13.32 7.44L13.32 7.44Q13.39 7.26 13.39 7.21L13.39 7.21ZM14.77 7.21L13.57 7.21L13.57 7.44L14.77 7.44L14.77 7.21ZM11.73 7.44L10.99 7.44L10.99 7.44Q11.10 7.97 11.14 7.97L11.14 7.97L11.33 7.97L11.33 8.85L11.65 8.85L11.65 7.49L11.73 7.49L11.73 7.44ZM15.43 9.66L15.43 9.45L16.42 9.45L16.42 9.66L15.43 9.66ZM15.52 10.12L15.52 9.74L15.61 9.74L15.61 9.89L15.74 9.89L15.74 9.78L15.74 9.78Q15.74 9.74 15.78 9.74L15.78 9.74L15.80 9.74L15.80 9.74Q15.84 9.75 15.84 9.78L15.84 9.78L15.84 10.09L15.84 10.09Q15.84 10.12 15.80 10.12L15.80 10.12L15.74 10.12L15.74 9.97L15.61 9.97L15.61 10.12L15.52 10.12ZM15.52 10.62L15.52 10.24L15.76 10.24L15.76 10.24Q15.79 10.25 15.79 10.27L15.79 10.27L15.79 10.32L15.61 10.32L15.61 10.39L15.76 10.39L15.76 10.47L15.61 10.47L15.61 10.62L15.52 10.62ZM15.54 10.74L15.54 10.74L15.78 10.74L15.78 10.74Q15.80 10.74 15.80 10.77L15.80 10.77L15.80 10.80L15.63 11.03L15.80 11.03L15.80 11.12L15.52 11.12L15.52 11.12Q15.49 11.12 15.49 11.07L15.49 11.07L15.49 11.07Q15.54 10.99 15.67 10.82L15.67 10.82L15.51 10.82L15.51 10.77L15.51 10.77Q15.52 10.74 15.54 10.74ZM15.52 11.53L15.52 11.23L15.61 11.23L15.61 11.45L15.63 11.53L15.71 11.53L15.71 11.53Q15.74 11.53 15.74 11.50L15.74 11.50L15.74 11.27L15.74 11.27Q15.74 11.23 15.78 11.23L15.78 11.23L15.80 11.23L15.80 11.23Q15.84 11.24 15.84 11.27L15.84 11.27L15.84 11.46L15.84 11.46Q15.84 11.61 15.69 11.61L15.69 11.61L15.66 11.61L15.66 11.61Q15.57 11.61 15.52 11.53L15.52 11.53ZM7.10 11.61L7.10 11.46L8.85 11.46L8.85 11.61L7.10 11.61ZM17.77 7.57L19.46 1.94L21.10 1.94L21.10 1.94Q21.14 2.08 22.71 7.29L22.71 7.29L23.00 7.29L23.00 10.51L22.33 10.51L22.33 10.76L23.00 10.76L23.00 11.45L21.18 11.45L21.18 9.47L18.96 9.47L18.96 10.31L18.05 10.31L18.05 11.73L16.40 11.73L16.40 11.63L16.53 11.63L16.53 10.31L17.21 10.31L17.21 7.57L17.77 7.57ZM20.26 4.70L20.23 4.70L20.23 4.72L20.23 4.72Q20.02 5.88 19.41 8.39L19.41 8.39L20.94 8.39L20.94 7.29L20.81 7.29L20.81 7.29Q20.26 4.91 20.26 4.70L20.26 4.70ZM17.31 7.08L17.31 7.08L17.46 7.08L17.46 7.08Q17.46 7.14 17.52 7.18L17.52 7.18L17.52 7.18Q17.53 7.12 17.59 7.08L17.59 7.08L17.71 7.08L17.71 7.09L17.71 7.09Q17.59 7.25 17.59 7.27L17.59 7.27L17.59 7.27Q17.62 7.33 17.72 7.47L17.72 7.47L17.72 7.51L17.66 7.51L17.66 7.51Q17.56 7.51 17.52 7.37L17.52 7.37L17.52 7.37Q17.42 7.51 17.40 7.51L17.40 7.51L17.32 7.51L17.32 7.51Q17.29 7.51 17.29 7.47L17.29 7.47L17.29 7.47Q17.31 7.47 17.42 7.29L17.42 7.29L17.42 7.26L17.42 7.26Q17.31 7.09 17.31 7.08ZM15.92 7.57L15.92 7.27L17.21 7.27L17.21 7.57L15.92 7.57ZM23.05 7.59L23.05 7.49L23.40 7.49L23.40 7.57L23.19 7.83L23.39 7.83L23.39 7.83Q23.41 7.84 23.41 7.87L23.41 7.87L23.41 7.90L23.41 7.90Q23.41 7.94 23.39 7.94L23.39 7.94L23.04 7.94L23.04 7.85L23.25 7.59L23.05 7.59ZM20.53 8.36L20.53 7.92L20.62 7.92L20.62 8.08L20.81 7.92L20.90 7.92L20.90 7.94L20.76 8.10L20.76 8.10Q20.92 8.33 20.92 8.36L20.92 8.36L20.82 8.36L20.82 8.36Q20.81 8.36 20.67 8.18L20.67 8.18L20.67 8.18Q20.65 8.18 20.62 8.23L20.62 8.23L20.62 8.36L20.53 8.36ZM23.08 8.07L23.08 8.07L23.28 8.07L23.28 8.07Q23.43 8.09 23.43 8.22L23.43 8.22L23.39 8.30L23.39 8.30Q23.43 8.35 23.43 8.50L23.43 8.50L23.43 8.51L23.33 8.51L23.33 8.51Q23.32 8.35 23.28 8.35L23.28 8.35L23.17 8.35L23.17 8.51L23.08 8.51L23.08 8.51Q23.05 8.51 23.05 8.48L23.05 8.48L23.05 8.10L23.05 8.10Q23.06 8.07 23.08 8.07ZM23.32 8.16L23.17 8.16L23.17 8.26L23.28 8.26L23.28 8.26Q23.32 8.26 23.32 8.23L23.32 8.23L23.32 8.16ZM23.05 8.64L23.05 8.64L23.37 8.64L23.37 8.64Q23.40 8.65 23.40 8.67L23.40 8.67L23.40 8.71L23.40 8.71Q23.40 8.74 23.37 8.74L23.37 8.74L23.27 8.74L23.27 9.09L23.15 9.09L23.15 8.74L23.05 8.74L23.05 8.74Q23.02 8.74 23.02 8.71L23.02 8.71L23.02 8.67L23.02 8.67Q23.02 8.64 23.05 8.64ZM23.15 9.67L23.02 9.22L23.10 9.22L23.10 9.22Q23.15 9.22 23.20 9.50L23.20 9.50L23.21 9.50L23.21 9.50Q23.30 9.26 23.30 9.22L23.30 9.22L23.41 9.22L23.41 9.22Q23.28 9.67 23.25 9.67L23.25 9.67L23.15 9.67ZM19.04 9.75L19.46 9.60L19.46 9.69L19.46 9.69Q19.46 9.71 19.19 9.80L19.19 9.80L19.19 9.82L19.46 9.91L19.46 10.01L19.04 9.86L19.04 9.75ZM16.89 9.80L16.89 9.80L16.95 9.80L16.95 9.80Q17.00 9.80 17.12 10.25L17.12 10.25L17.03 10.25L17.03 10.25Q17.03 10.23 16.99 10.14L16.99 10.14L16.84 10.14L16.84 10.14Q16.83 10.25 16.80 10.25L16.80 10.25L16.71 10.25L16.71 10.25Q16.86 9.80 16.89 9.80ZM23.24 9.80L23.24 9.80L23.28 9.80L23.28 9.80Q23.45 9.80 23.48 10.03L23.48 10.03L23.48 10.03Q23.43 10.26 23.27 10.26L23.27 10.26L23.27 10.26Q23.04 10.22 23.04 10.03L23.04 10.03L23.04 10.03Q23.07 9.80 23.24 9.80ZM23.15 10.01L23.15 10.01L23.15 10.03L23.15 10.03Q23.15 10.12 23.24 10.17L23.24 10.17L23.28 10.17L23.28 10.17Q23.37 10.12 23.37 10.03L23.37 10.03L23.37 10.01L23.37 10.01Q23.35 9.88 23.25 9.88L23.25 9.88L23.25 9.88Q23.15 9.92 23.15 10.01ZM16.93 9.95L16.91 9.95L16.91 9.95Q16.88 10.06 16.88 10.06L16.88 10.06L16.96 10.06L16.93 9.95ZM21.18 11.73L21.18 11.57L23.39 11.57L23.39 11.73L21.18 11.73ZM23.84 1.93L23.84 1.93L25.85 1.93L25.85 1.93Q25.89 1.93 26.49 3.51L26.49 3.51L26.49 3.51Q26.54 3.56 27.75 6.60L27.75 6.60L28.26 6.60L28.26 1.93L30.02 1.93L30.02 7.49L30.21 7.49L30.21 9.66L29.50 9.66L29.50 10.08L30.21 10.08L30.21 11.37L27.58 11.37L27.58 9.73L27.12 9.73L27.12 9.73Q26.17 7.42 25.85 6.55L25.85 6.55L25.85 4.89L25.60 4.89L25.60 9.93L25.20 9.93L25.20 11.66L23.56 11.66L23.56 7.92L23.86 7.92L23.86 7.91L23.86 7.91Q23.84 3.07 23.84 1.93ZM30.10 5.35L30.10 4.98L30.28 4.98L30.28 4.98Q30.41 4.98 30.41 5.11L30.41 5.11L30.41 5.11Q30.41 5.16 30.37 5.16L30.37 5.16L30.37 5.16Q30.41 5.22 30.41 5.31L30.41 5.31L30.41 5.35L30.33 5.35L30.33 5.35Q30.32 5.21 30.28 5.21L30.28 5.21L30.20 5.21L30.20 5.35L30.10 5.35ZM30.32 5.06L30.20 5.06L30.20 5.15L30.28 5.15L30.28 5.15Q30.32 5.15 30.32 5.11L30.32 5.11L30.32 5.06ZM30.10 5.48L30.10 5.48L30.38 5.48L30.38 5.56L30.28 5.56L30.28 5.84L30.18 5.84L30.18 5.56L30.10 5.56L30.10 5.56Q30.06 5.56 30.06 5.52L30.06 5.52L30.06 5.51L30.06 5.51Q30.07 5.48 30.10 5.48ZM30.06 5.97L30.06 5.97L30.13 5.97L30.13 5.97Q30.17 5.97 30.21 6.19L30.21 6.19L30.25 6.19L30.30 5.97L30.40 5.97L30.28 6.34L30.20 6.34L30.20 6.34Q30.16 6.34 30.06 5.97ZM30.08 6.47L30.08 6.47L30.18 6.47L30.18 6.47Q30.19 6.53 30.25 6.57L30.25 6.57L30.25 6.57Q30.30 6.47 30.33 6.47L30.33 6.47L30.40 6.47L30.40 6.49L30.40 6.49Q30.30 6.64 30.30 6.67L30.30 6.67L30.30 6.67Q30.32 6.67 30.41 6.83L30.41 6.83L30.30 6.83L30.30 6.83Q30.30 6.78 30.24 6.73L30.24 6.73L30.24 6.73Q30.17 6.83 30.15 6.83L30.15 6.83L30.06 6.83L30.06 6.83Q30.18 6.66 30.18 6.65L30.18 6.65L30.18 6.65Q30.08 6.49 30.08 6.47ZM27.72 6.60L26.79 6.60L26.79 6.97L27.88 6.97L27.88 6.97Q27.75 6.60 27.72 6.60L27.72 6.60ZM29.07 6.60L28.28 6.60L28.28 6.97L27.90 6.97L27.90 6.97Q28.25 7.84 28.31 8.11L28.31 8.11L28.33 8.11L28.33 8.06L28.33 8.06Q28.28 7.16 28.28 6.97L28.28 6.97L29.07 6.97L29.07 6.60ZM30.10 7.33L30.10 6.97L30.26 6.97L30.26 6.97Q30.43 6.99 30.43 7.13L30.43 7.13L30.43 7.14L30.43 7.14Q30.43 7.33 30.28 7.33L30.28 7.33L30.10 7.33ZM30.28 7.05L30.20 7.05L30.20 7.26L30.20 7.26Q30.33 7.26 30.33 7.16L30.33 7.16L30.33 7.14L30.33 7.14Q30.33 7.06 30.28 7.05L30.28 7.05ZM27.22 9.83L27.22 9.83L27.47 9.83L27.47 9.91L27.29 9.91L27.29 9.97L27.43 9.97L27.43 9.97Q27.47 9.98 27.47 10.01L27.47 10.01L27.47 10.03L27.47 10.03Q27.47 10.06 27.43 10.06L27.43 10.06L27.29 10.06L27.29 10.12L27.45 10.12L27.45 10.12Q27.49 10.13 27.49 10.16L27.49 10.16L27.49 10.17L27.49 10.17Q27.49 10.21 27.45 10.21L27.45 10.21L27.22 10.21L27.22 10.21Q27.19 10.21 27.19 10.17L27.19 10.17L27.19 9.86L27.19 9.86Q27.19 9.83 27.22 9.83ZM25.23 10.01L25.23 10.01L25.33 10.01L25.33 10.01Q25.40 10.21 25.40 10.24L25.40 10.24L25.42 10.24L25.42 10.24Q25.46 10.01 25.50 10.01L25.50 10.01L25.57 10.01L25.57 10.03L25.57 10.03Q25.46 10.38 25.44 10.38L25.44 10.38L25.35 10.38L25.35 10.38Q25.35 10.33 25.23 10.01ZM27.35 10.32L27.35 10.32L27.38 10.32L27.38 10.32Q27.42 10.33 27.42 10.36L27.42 10.36L27.42 10.58L27.42 10.58Q27.42 10.66 27.34 10.71L27.34 10.71L27.29 10.71L27.29 10.71Q27.17 10.71 27.17 10.59L27.17 10.59L27.17 10.55L27.25 10.55L27.25 10.55Q27.25 10.62 27.29 10.62L27.29 10.62L27.32 10.62L27.32 10.36L27.32 10.36Q27.32 10.32 27.35 10.32ZM27.22 10.82L27.22 10.82L27.25 10.82L27.25 10.82Q27.29 10.82 27.29 10.95L27.29 10.95L27.43 10.82L27.52 10.82L27.52 10.83L27.38 10.99L27.38 10.99Q27.41 10.99 27.54 11.18L27.54 11.18L27.50 11.20L27.45 11.20L27.45 11.20Q27.43 11.20 27.32 11.05L27.32 11.05L27.32 11.05Q27.29 11.05 27.27 11.20L27.27 11.20L27.22 11.20L27.22 11.20Q27.19 11.20 27.19 11.17L27.19 11.17L27.19 10.86L27.19 10.86Q27.19 10.82 27.22 10.82ZM27.58 11.73L27.58 11.55L30.76 11.55L30.76 11.73L27.58 11.73Z"></path></g><!----><!----></svg>